<?xml version="1.0" encoding="utf-8"?>
<!-- Generator: Adobe Illustrator 19.1.1, SVG Export Plug-In . SVG Version: 6.00 Build 0)  -->
<svg version="1.1" id="Calque_1" xmlns="http://www.w3.org/2000/svg" xmlns:xlink="http://www.w3.org/1999/xlink" x="0px" y="0px"
	 viewBox="0 0 396.9 453.5" style="enable-background:new 0 0 396.9 453.5;" xml:space="preserve">
<path d="M172.3,10.6h108.9L226.4,65l103.6,104.2v209.6c0,1-0.8,1.8-1.8,1.8s-1.8-0.8-1.8-1.8V170.7L223.9,67.5l-54.2,52.6l0.1-105.9
	H9.6c-1,0-1.8-0.8-1.8-1.8s0.8-1.8,1.8-1.8h160.2 M173.4,16.7v95.9l48-47.6L173.4,16.7z M175.9,14.2l48.1,48.3l48.7-48.3H175.9z"/>
<path d="M222.9,120.4H116.7V12.8c0-1,0.8-1.8,1.8-1.8s1.8,0.8,1.8,1.8v104h102.7c1,0,1.8,0.8,1.8,1.8
	C224.7,119.6,223.9,120.4,222.9,120.4z"/>
<path d="M379.6,448.8c-1,0-1.8-0.8-1.8-1.8V221.3c0-1,0.8-1.8,1.8-1.8s1.8,0.8,1.8,1.8V447C381.4,448,380.6,448.8,379.6,448.8z"/>
<path d="M378.7,273.5c-0.5,0-0.9-0.2-1.3-0.5l-49.1-49.1c-0.7-0.7-0.7-1.8,0-2.5c0.7-0.7,1.8-0.7,2.5,0l49.1,49.1
	c0.7,0.7,0.7,1.8,0,2.5C379.6,273.4,379.2,273.5,378.7,273.5z"/>
<path d="M378.7,327.1c-0.5,0-0.9-0.2-1.3-0.5l-49.1-49.1c-0.7-0.7-0.7-1.8,0-2.5c0.7-0.7,1.8-0.7,2.5,0l49.1,49.1
	c0.7,0.7,0.7,1.8,0,2.5C379.6,326.9,379.2,327.1,378.7,327.1z"/>
<path d="M378.7,380.6c-0.5,0-0.9-0.2-1.3-0.5L328.4,331c-0.7-0.7-0.7-1.8,0-2.5c0.7-0.7,1.8-0.7,2.5,0l49.1,49.1
	c0.7,0.7,0.7,1.8,0,2.5C379.6,380.5,379.2,380.6,378.7,380.6z"/>
<path d="M383.2,171.7c-0.5,0-0.9-0.2-1.3-0.5L275,64.3l44.5-53.7h61.9c1,0,1.8,0.8,1.8,1.8s-0.8,1.8-1.8,1.8h-60.2l-41.4,49.9
	l104.6,104.6c0.7,0.7,0.7,1.8,0,2.5C384.1,171.6,383.6,171.7,383.2,171.7z"/>
<path d="M381.8,66H277.4c-1,0-1.8-0.8-1.8-1.8c0-1,0.8-1.8,1.8-1.8h104.5c1,0,1.8,0.8,1.8,1.8C383.6,65.2,382.8,66,381.8,66z"/>
<path d="M381.4,121.3c-0.5,0-0.9-0.2-1.3-0.6l-51.8-55.3c-0.7-0.7-0.6-1.8,0.1-2.5c0.7-0.7,1.8-0.6,2.5,0.1l51.8,55.3
	c0.7,0.7,0.6,1.8-0.1,2.5C382.3,121.1,381.8,121.3,381.4,121.3z"/>
</svg>
